<mxfile host="65bd71144e">
    <diagram id="B98Myi7qIVIVGV0O9Yf8" name="Page-1">
        <mxGraphModel dx="382" dy="413" grid="1" gridSize="10" guides="1" tooltips="1" connect="1" arrows="1" fold="1" page="1" pageScale="1" pageWidth="827" pageHeight="1169" background="#ffffff" math="1" shadow="0">
            <root>
                <mxCell id="0"/>
                <mxCell id="1" parent="0"/>
                <mxCell id="huDF47PdF3qLj8TZO268-3" style="edgeStyle=orthogonalEdgeStyle;rounded=0;orthogonalLoop=1;jettySize=auto;html=1;" parent="1" source="huDF47PdF3qLj8TZO268-2" target="huDF47PdF3qLj8TZO268-4" edge="1">
                    <mxGeometry relative="1" as="geometry">
                        <mxPoint x="386" y="220" as="targetPoint"/>
                    </mxGeometry>
                </mxCell>
                <mxCell id="huDF47PdF3qLj8TZO268-2" value="Начало" style="ellipse;whiteSpace=wrap;html=1;" parent="1" vertex="1">
                    <mxGeometry x="330.37" y="80" width="110" height="40" as="geometry"/>
                </mxCell>
                <mxCell id="huDF47PdF3qLj8TZO268-9" value="" style="group" parent="1" vertex="1" connectable="0">
                    <mxGeometry x="220.75" y="140" width="329.24" height="60" as="geometry"/>
                </mxCell>
                <mxCell id="huDF47PdF3qLj8TZO268-4" value="обучающая выборка \(XD^N = \{(x^{(i)}, d^{(i)}), i = \overline{1, N}\}\)" style="shape=parallelogram;perimeter=parallelogramPerimeter;whiteSpace=wrap;html=1;fixedSize=1;perimeterSpacing=0;align=center;" parent="huDF47PdF3qLj8TZO268-9" vertex="1">
                    <mxGeometry width="329.24" height="60" as="geometry"/>
                </mxCell>
                <mxCell id="huDF47PdF3qLj8TZO268-11" style="edgeStyle=orthogonalEdgeStyle;rounded=0;orthogonalLoop=1;jettySize=auto;html=1;exitX=0.5;exitY=1;exitDx=0;exitDy=0;entryX=0.5;entryY=0;entryDx=0;entryDy=0;" parent="1" source="huDF47PdF3qLj8TZO268-4" target="27" edge="1">
                    <mxGeometry relative="1" as="geometry">
                        <mxPoint x="381.515" y="190" as="sourcePoint"/>
                        <mxPoint x="385.33333333333337" y="210" as="targetPoint"/>
                    </mxGeometry>
                </mxCell>
                <mxCell id="huDF47PdF3qLj8TZO268-16" value="Конец" style="ellipse;whiteSpace=wrap;html=1;" parent="1" vertex="1">
                    <mxGeometry x="330.36999999999995" y="930" width="110" height="40" as="geometry"/>
                </mxCell>
                <mxCell id="4" style="edgeStyle=none;html=1;entryX=0.5;entryY=0;entryDx=0;entryDy=0;exitX=0.5;exitY=1;exitDx=0;exitDy=0;" edge="1" parent="1" source="3" target="5">
                    <mxGeometry relative="1" as="geometry">
                        <mxPoint x="385.3799999999999" y="530" as="targetPoint"/>
                        <mxPoint x="420" y="500" as="sourcePoint"/>
                    </mxGeometry>
                </mxCell>
                <mxCell id="38" style="edgeStyle=none;html=1;entryX=0.057;entryY=0.529;entryDx=0;entryDy=0;entryPerimeter=0;" edge="1" parent="1" source="3" target="32">
                    <mxGeometry relative="1" as="geometry">
                        <Array as="points">
                            <mxPoint x="520" y="430"/>
                            <mxPoint x="520" y="764"/>
                        </Array>
                    </mxGeometry>
                </mxCell>
                <mxCell id="3" value="можно расщепить выборку?" style="rhombus;whiteSpace=wrap;html=1;" vertex="1" parent="1">
                    <mxGeometry x="338.85999999999996" y="390" width="93.08" height="80" as="geometry"/>
                </mxCell>
                <mxCell id="8" style="edgeStyle=none;html=1;entryX=0.5;entryY=0;entryDx=0;entryDy=0;" edge="1" parent="1" source="5" target="7">
                    <mxGeometry relative="1" as="geometry"/>
                </mxCell>
                <mxCell id="5" value="выбрать \(p\)&amp;nbsp; признаков" style="rounded=0;whiteSpace=wrap;html=1;" vertex="1" parent="1">
                    <mxGeometry x="309.44" y="500" width="151.92" height="50" as="geometry"/>
                </mxCell>
                <mxCell id="26" style="edgeStyle=none;html=1;entryX=0.5;entryY=0;entryDx=0;entryDy=0;" edge="1" parent="1" source="7" target="25">
                    <mxGeometry relative="1" as="geometry"/>
                </mxCell>
                <mxCell id="7" value="выбрать признак, обеспечивающий наилучшее расщепление" style="rounded=0;whiteSpace=wrap;html=1;" vertex="1" parent="1">
                    <mxGeometry x="309.44" y="580" width="151.92" height="50" as="geometry"/>
                </mxCell>
                <mxCell id="33" style="edgeStyle=none;html=1;entryX=0.5;entryY=1;entryDx=0;entryDy=0;" edge="1" parent="1" source="25" target="32">
                    <mxGeometry relative="1" as="geometry"/>
                </mxCell>
                <mxCell id="25" value="расщепить выборку" style="rounded=0;whiteSpace=wrap;html=1;" vertex="1" parent="1">
                    <mxGeometry x="309.42" y="660" width="151.92" height="50" as="geometry"/>
                </mxCell>
                <mxCell id="30" style="edgeStyle=none;html=1;entryX=0.5;entryY=0;entryDx=0;entryDy=0;" edge="1" parent="1" source="27" target="29">
                    <mxGeometry relative="1" as="geometry"/>
                </mxCell>
                <mxCell id="27" value="цикл \(k = \overline{1, l}\)" style="shape=trapezoid;perimeter=trapezoidPerimeter;whiteSpace=wrap;html=1;fixedSize=1;rounded=0;" vertex="1" parent="1">
                    <mxGeometry x="325.375" y="220" width="120" height="60" as="geometry"/>
                </mxCell>
                <mxCell id="31" style="edgeStyle=none;html=1;entryX=0.5;entryY=0;entryDx=0;entryDy=0;" edge="1" parent="1" source="29" target="3">
                    <mxGeometry relative="1" as="geometry"/>
                </mxCell>
                <mxCell id="29" value="cформировать бутстреп выборку \(XD_k^N\) по исходной выборке" style="rounded=0;whiteSpace=wrap;html=1;" vertex="1" parent="1">
                    <mxGeometry x="289.43" y="310" width="191.93" height="50" as="geometry"/>
                </mxCell>
                <mxCell id="40" style="edgeStyle=none;html=1;entryX=0.5;entryY=0;entryDx=0;entryDy=0;" edge="1" parent="1" source="32" target="39">
                    <mxGeometry relative="1" as="geometry"/>
                </mxCell>
                <mxCell id="32" value="конец цикла" style="shape=trapezoid;perimeter=trapezoidPerimeter;whiteSpace=wrap;html=1;fixedSize=1;rounded=0;direction=west;" vertex="1" parent="1">
                    <mxGeometry x="336.89000000000004" y="740" width="96.95" height="50" as="geometry"/>
                </mxCell>
                <mxCell id="34" value="" style="endArrow=classic;html=1;entryX=0;entryY=0.5;entryDx=0;entryDy=0;" edge="1" parent="1" target="3">
                    <mxGeometry width="50" height="50" relative="1" as="geometry">
                        <mxPoint x="385" y="720" as="sourcePoint"/>
                        <mxPoint x="250" y="420" as="targetPoint"/>
                        <Array as="points">
                            <mxPoint x="250" y="720"/>
                            <mxPoint x="250" y="430"/>
                        </Array>
                    </mxGeometry>
                </mxCell>
                <mxCell id="35" value="Да" style="text;html=1;strokeColor=none;fillColor=none;align=center;verticalAlign=middle;whiteSpace=wrap;rounded=0;" vertex="1" parent="1">
                    <mxGeometry x="385.38" y="460" width="60" height="30" as="geometry"/>
                </mxCell>
                <mxCell id="41" style="edgeStyle=none;html=1;entryX=0.5;entryY=0;entryDx=0;entryDy=0;" edge="1" parent="1" source="39" target="huDF47PdF3qLj8TZO268-16">
                    <mxGeometry relative="1" as="geometry"/>
                </mxCell>
                <mxCell id="39" value="выбрать класс образов \(x \in \omega_i\), который максимальное число раз выбран классификаторами" style="rounded=0;whiteSpace=wrap;html=1;" vertex="1" parent="1">
                    <mxGeometry x="303.09000000000003" y="820" width="164.63" height="80" as="geometry"/>
                </mxCell>
            </root>
        </mxGraphModel>
    </diagram>
</mxfile>